<svg xmlns="http://www.w3.org/2000/svg" fill="none" viewBox="0 0 96 96">
  <g clip-path="url(#a)">
    <path fill="#FCBF49" d="m45.67 48 1.75 46.4s0 .87.58.87.58-.87.58-.87L50.33 48"/>
    <path stroke="#843511" d="m45.67 48 1.75 46.4s0 .87.58.87.58-.87.58-.87L50.33 48"/>
    <path fill="#843511" d="M46.84 48 48 79.85 49.16 48"/>
    <path fill="#FCBF49" d="M43.61 62.99c-2.67 5.84-.37 10.61-3.04 15.7-2.67 5.1-1 9.3-1.18 11.64-.18 2.34-2.1 3-1.61 3.53.48.55 2.48-.53 3.26-3.64.78-3.1-1.08-4.9 2.12-11.14 3.2-6.25.66-9.07 3.87-14.65"/>
    <path stroke="#843511" d="M43.61 62.99c-2.67 5.84-.37 10.61-3.04 15.7-2.67 5.1-1 9.3-1.18 11.64-.18 2.34-2.1 3-1.61 3.53.48.55 2.48-.53 3.26-3.64.78-3.1-1.08-4.9 2.12-11.14 3.2-6.25.66-9.07 3.87-14.65"/>
    <path fill="#843511" d="M44.35 64.48c-2.07 5.8.11 9.67-2.67 14.6 3.1-3.53 1.05-8.1 3.75-14.09"/>
    <path fill="#FCBF49" d="M50.33 48 48.58 1.6s0-.87-.58-.87-.58.87-.58.87L45.67 48"/>
    <path stroke="#843511" d="M50.33 48 48.58 1.6s0-.87-.58-.87-.58.87-.58.87L45.67 48"/>
    <path fill="#843511" d="M49.16 48 48 16.15 46.84 48"/>
    <path fill="#FCBF49" d="M52.39 33.01c2.67-5.84.37-10.61 3.04-15.7 2.67-5.1 1-9.3 1.18-11.64.18-2.34 2.1-3 1.61-3.53-.48-.55-2.48.53-3.26 3.64-.78 3.1 1.08 4.9-2.12 11.14-3.2 6.25-.66 9.07-3.87 14.65"/>
    <path stroke="#843511" d="M52.39 33.01c2.67-5.84.37-10.61 3.04-15.7 2.67-5.1 1-9.3 1.18-11.64.18-2.34 2.1-3 1.61-3.53-.48-.55-2.48.53-3.26 3.64-.78 3.1 1.08 4.9-2.12 11.14-3.2 6.25-.66 9.07-3.87 14.65"/>
    <path fill="#843511" d="M51.65 31.52c2.07-5.8-.11-9.67 2.67-14.6-3.1 3.53-1.05 8.1-3.75 14.09"/>
    <path fill="#FCBF49" d="M48 45.67 1.6 47.42s-.87 0-.87.58.87.58.87.58L48 50.33"/>
    <path stroke="#843511" d="M48 45.67 1.6 47.42s-.87 0-.87.58.87.58.87.58L48 50.33"/>
    <path fill="#843511" d="M48 46.84 16.15 48 48 49.16"/>
    <path fill="#FCBF49" d="M33.01 43.61c-5.84-2.67-10.61-.37-15.7-3.04-5.1-2.67-9.3-1-11.64-1.18-2.34-.18-3-2.1-3.53-1.61-.55.48.53 2.48 3.64 3.26 3.1.78 4.9-1.08 11.14 2.12 6.25 3.2 9.07.66 14.65 3.87"/>
    <path stroke="#843511" d="M33.01 43.61c-5.84-2.67-10.61-.37-15.7-3.04-5.1-2.67-9.3-1-11.64-1.18-2.34-.18-3-2.1-3.53-1.61-.55.48.53 2.48 3.64 3.26 3.1.78 4.9-1.08 11.14 2.12 6.25 3.2 9.07.66 14.65 3.87"/>
    <path fill="#843511" d="M31.52 44.35c-5.8-2.07-9.67.11-14.6-2.67 3.53 3.1 8.1 1.05 14.09 3.75"/>
    <path fill="#FCBF49" d="m48 50.33 46.4-1.75s.87 0 .87-.58-.87-.58-.87-.58L48 45.67"/>
    <path stroke="#843511" d="m48 50.33 46.4-1.75s.87 0 .87-.58-.87-.58-.87-.58L48 45.67"/>
    <path fill="#843511" d="M48 49.16 79.85 48 48 46.84"/>
    <path fill="#FCBF49" d="M62.99 52.39c5.84 2.67 10.61.37 15.7 3.04 5.1 2.67 9.3 1 11.64 1.18 2.34.18 3 2.1 3.53 1.61.55-.48-.53-2.48-3.64-3.26-3.1-.78-4.9 1.08-11.14-2.12-6.25-3.2-9.07-.66-14.65-3.87"/>
    <path stroke="#843511" d="M62.99 52.39c5.84 2.67 10.61.37 15.7 3.04 5.1 2.67 9.3 1 11.64 1.18 2.34.18 3 2.1 3.53 1.61.55-.48-.53-2.48-3.64-3.26-3.1-.78-4.9 1.08-11.14-2.12-6.25-3.2-9.07-.66-14.65-3.87"/>
    <path fill="#843511" d="M64.48 51.65c5.8 2.07 9.67-.11 14.6 2.67-3.53-3.1-8.1-1.05-14.09-3.75"/>
    <path fill="#FCBF49" d="M46.35 46.35 14.78 80.4s-.62.62-.2 1.03c.4.4 1.02-.2 1.02-.2l34.05-31.58"/>
    <path stroke="#843511" d="M46.35 46.35 14.78 80.4s-.62.62-.2 1.03c.4.4 1.02-.2 1.02-.2l34.05-31.58"/>
    <path fill="#843511" d="m47.18 47.18-21.7 23.34 23.34-21.7"/>
    <path fill="#FCBF49" d="M34.3 55.5c-6.02 2.24-7.77 7.23-13.26 8.95-5.5 1.72-7.28 5.87-9.06 7.4-1.78 1.52-3.6.63-3.64 1.35-.04.73 2.13 1.38 4.88-.26 2.75-1.65 2.7-4.23 9.38-6.39 6.69-2.15 6.88-5.94 13.1-7.62"/>
    <path stroke="#843511" d="M34.3 55.5c-6.02 2.24-7.77 7.23-13.26 8.95-5.5 1.72-7.28 5.87-9.06 7.4-1.78 1.52-3.6.63-3.64 1.35-.04.73 2.13 1.38 4.88-.26 2.75-1.65 2.7-4.23 9.38-6.39 6.69-2.15 6.88-5.94 13.1-7.62"/>
    <path fill="#843511" d="M33.77 57.07c-5.58 2.64-6.76 6.92-12.21 8.43 4.68-.3 6.47-4.98 12.6-7.3"/>
    <path fill="#FCBF49" d="M49.65 49.65 81.22 15.6s.62-.62.2-1.03c-.4-.4-1.02.2-1.02.2L46.35 46.36"/>
    <path stroke="#843511" d="M49.65 49.65 81.22 15.6s.62-.62.2-1.03c-.4-.4-1.02.2-1.02.2L46.35 46.36"/>
    <path fill="#843511" d="m48.82 48.82 21.7-23.34-23.34 21.7"/>
    <path fill="#FCBF49" d="M61.7 40.5c6.02-2.24 7.77-7.23 13.26-8.95 5.5-1.72 7.28-5.87 9.06-7.4 1.78-1.52 3.6-.63 3.64-1.35.04-.73-2.13-1.38-4.88.26-2.75 1.65-2.7 4.23-9.38 6.39-6.69 2.15-6.88 5.94-13.1 7.62"/>
    <path stroke="#843511" d="M61.7 40.5c6.02-2.24 7.77-7.23 13.26-8.95 5.5-1.72 7.28-5.87 9.06-7.4 1.78-1.52 3.6-.63 3.64-1.35.04-.73-2.13-1.38-4.88.26-2.75 1.65-2.7 4.23-9.38 6.39-6.69 2.15-6.88 5.94-13.1 7.62"/>
    <path fill="#843511" d="M62.23 38.93c5.58-2.64 6.76-6.92 12.21-8.43-4.68.3-6.47 4.98-12.6 7.3"/>
    <path fill="#FCBF49" d="M49.65 46.35 15.6 14.78s-.62-.62-1.03-.2c-.4.4.2 1.02.2 1.02l31.58 34.05"/>
    <path stroke="#843511" d="M49.65 46.35 15.6 14.78s-.62-.62-1.03-.2c-.4.4.2 1.02.2 1.02l31.58 34.05"/>
    <path fill="#843511" d="m48.82 47.18-23.34-21.7 21.7 23.34"/>
    <path fill="#FCBF49" d="M40.5 34.3c-2.24-6.02-7.23-7.77-8.95-13.26-1.72-5.5-5.87-7.28-7.4-9.06-1.52-1.78-.63-3.6-1.35-3.64-.73-.04-1.38 2.13.26 4.88 1.65 2.75 4.23 2.7 6.39 9.38 2.15 6.69 5.94 6.88 7.62 13.1"/>
    <path stroke="#843511" d="M40.5 34.3c-2.24-6.02-7.23-7.77-8.95-13.26-1.72-5.5-5.87-7.28-7.4-9.06-1.52-1.78-.63-3.6-1.35-3.64-.73-.04-1.38 2.13.26 4.88 1.65 2.75 4.23 2.7 6.39 9.38 2.15 6.69 5.94 6.88 7.62 13.1"/>
    <path fill="#843511" d="M38.93 33.77c-2.64-5.58-6.92-6.76-8.43-12.21.3 4.68 4.98 6.47 7.3 12.6"/>
    <path fill="#FCBF49" d="M46.35 49.65 80.4 81.22s.62.62 1.03.2c.4-.4-.2-1.02-.2-1.02L49.64 46.35"/>
    <path stroke="#843511" d="M46.35 49.65 80.4 81.22s.62.62 1.03.2c.4-.4-.2-1.02-.2-1.02L49.64 46.35"/>
    <path fill="#843511" d="m47.18 48.82 23.34 21.7-21.7-23.34"/>
    <path fill="#FCBF49" d="M55.5 61.7c2.24 6.02 7.23 7.77 8.95 13.26 1.72 5.5 5.87 7.28 7.4 9.06 1.52 1.78.63 3.6 1.35 3.64.73.04 1.38-2.13-.26-4.88-1.65-2.75-4.23-2.7-6.39-9.38-2.15-6.69-5.94-6.88-7.62-13.1"/>
    <path stroke="#843511" d="M55.5 61.7c2.24 6.02 7.23 7.77 8.95 13.26 1.72 5.5 5.87 7.28 7.4 9.06 1.52 1.78.63 3.6 1.35 3.64.73.04 1.38-2.13-.26-4.88-1.65-2.75-4.23-2.7-6.39-9.38-2.15-6.69-5.94-6.88-7.62-13.1"/>
    <path fill="#843511" d="M57.07 62.23c2.64 5.58 6.92 6.76 8.43 12.21-.3-4.68-4.98-6.47-7.3-12.6"/>
    <path fill="#FCBF49" d="M45.85 47.1 29.71 90.66s-.34.8.2 1.02c.54.23.87-.58.87-.58l19.37-42.2"/>
    <path stroke="#843511" d="M45.85 47.1 29.71 90.66s-.34.8.2 1.02c.54.23.87-.58.87-.58l19.37-42.2"/>
    <path fill="#843511" d="M46.92 47.55 35.81 77.43l13.27-28.98"/>
    <path fill="#FCBF49" d="M38.21 60.17c-4.7 4.37-4.4 9.66-8.82 13.35-4.42 3.68-4.49 8.2-5.55 10.3-1.06 2.09-3.07 1.95-2.84 2.64.24.69 2.5.46 4.41-2.11 1.91-2.57.88-4.94 6.23-9.49 5.35-4.55 4.08-8.13 9.18-12.05"/>
    <path stroke="#843511" d="M38.21 60.17c-4.7 4.37-4.4 9.66-8.82 13.35-4.42 3.68-4.49 8.2-5.55 10.3-1.06 2.09-3.07 1.95-2.84 2.64.24.69 2.5.46 4.41-2.11 1.91-2.57.88-4.94 6.23-9.49 5.35-4.55 4.08-8.13 9.18-12.05"/>
    <path fill="#843511" d="M38.32 61.83c-4.14 4.57-3.6 8.97-8.05 12.46 4.2-2.08 4.07-7.08 8.86-11.57"/>
    <path fill="#FCBF49" d="M50.15 48.9 66.29 5.34s.34-.8-.2-1.02c-.54-.23-.87.58-.87.58L45.85 47.1"/>
    <path stroke="#843511" d="M50.15 48.9 66.29 5.34s.34-.8-.2-1.02c-.54-.23-.87.58-.87.58L45.85 47.1"/>
    <path fill="#843511" d="m49.08 48.45 11.11-29.88-13.27 28.98"/>
    <path fill="#FCBF49" d="M57.79 35.83c4.7-4.37 4.4-9.66 8.82-13.35 4.42-3.68 4.49-8.2 5.55-10.3 1.06-2.09 3.07-1.95 2.84-2.64-.24-.69-2.5-.46-4.41 2.11-1.91 2.57-.88 4.94-6.23 9.49-5.35 4.55-4.08 8.13-9.18 12.05"/>
    <path stroke="#843511" d="M57.79 35.83c4.7-4.37 4.4-9.66 8.82-13.35 4.42-3.68 4.49-8.2 5.55-10.3 1.06-2.09 3.07-1.95 2.84-2.64-.24-.69-2.5-.46-4.41 2.11-1.91 2.57-.88 4.94-6.23 9.49-5.35 4.55-4.08 8.13-9.18 12.05"/>
    <path fill="#843511" d="M57.68 34.17c4.14-4.57 3.6-8.97 8.05-12.46-4.2 2.08-4.07 7.08-8.86 11.57"/>
    <path fill="#FCBF49" d="M48.9 45.85 5.34 29.71s-.8-.34-1.02.2c-.23.54.58.87.58.87l42.2 19.37"/>
    <path stroke="#843511" d="M48.9 45.85 5.34 29.71s-.8-.34-1.02.2c-.23.54.58.87.58.87l42.2 19.37"/>
    <path fill="#843511" d="M48.45 46.92 18.57 35.81l28.98 13.27"/>
    <path fill="#FCBF49" d="M35.83 38.21c-4.37-4.7-9.66-4.4-13.35-8.82-3.68-4.42-8.2-4.49-10.3-5.55-2.09-1.06-1.95-3.07-2.64-2.84-.69.24-.46 2.5 2.11 4.41 2.57 1.91 4.94.88 9.49 6.23 4.55 5.35 8.13 4.08 12.05 9.18"/>
    <path stroke="#843511" d="M35.83 38.21c-4.37-4.7-9.66-4.4-13.35-8.82-3.68-4.42-8.2-4.49-10.3-5.55-2.09-1.06-1.95-3.07-2.64-2.84-.69.24-.46 2.5 2.11 4.41 2.57 1.91 4.94.88 9.49 6.23 4.55 5.35 8.13 4.08 12.05 9.18"/>
    <path fill="#843511" d="M34.17 38.32c-4.57-4.14-8.97-3.6-12.46-8.05 2.08 4.2 7.08 4.07 11.57 8.86"/>
    <path fill="#FCBF49" d="m47.1 50.15 43.55 16.14s.8.34 1.02-.2c.23-.54-.58-.87-.58-.87L48.9 45.85"/>
    <path stroke="#843511" d="m47.1 50.15 43.55 16.14s.8.34 1.02-.2c.23-.54-.58-.87-.58-.87L48.9 45.85"/>
    <path fill="#843511" d="m47.55 49.08 29.88 11.11-28.98-13.27"/>
    <path fill="#FCBF49" d="M60.17 57.79c4.37 4.7 9.66 4.4 13.35 8.82 3.68 4.42 8.2 4.49 10.3 5.55 2.09 1.06 1.95 3.07 2.64 2.84.69-.24.46-2.5-2.11-4.41-2.57-1.91-4.94-.88-9.49-6.23-4.55-5.35-8.13-4.08-12.05-9.18"/>
    <path stroke="#843511" d="M60.17 57.79c4.37 4.7 9.66 4.4 13.35 8.82 3.68 4.42 8.2 4.49 10.3 5.55 2.09 1.06 1.95 3.07 2.64 2.84.69-.24.46-2.5-2.11-4.41-2.57-1.91-4.94-.88-9.49-6.23-4.55-5.35-8.13-4.08-12.05-9.18"/>
    <path fill="#843511" d="M61.83 57.68c4.57 4.14 8.97 3.6 12.46 8.05-2.08-4.2-7.08-4.07-11.57-8.86"/>
    <path fill="#FCBF49" d="M47.1 45.85 4.9 65.22s-.8.33-.57.87c.22.54 1.02.2 1.02.2L48.9 50.15"/>
    <path stroke="#843511" d="M47.1 45.85 4.9 65.22s-.8.33-.57.87c.22.54 1.02.2 1.02.2L48.9 50.15"/>
    <path fill="#843511" d="M47.55 46.92 18.57 60.2l29.88-11.11"/>
    <path fill="#FCBF49" d="M32.47 49.68c-6.41-.23-9.94 3.72-15.68 3.2-5.73-.52-8.97 2.63-11.2 3.36-2.23.73-3.56-.79-3.88-.13-.31.65 1.45 2.09 4.62 1.62 3.17-.47 4.1-2.87 11.1-2.3 7 .56 8.64-2.87 15.02-2.04"/>
    <path stroke="#843511" d="M32.47 49.68c-6.41-.23-9.94 3.72-15.68 3.2-5.73-.52-8.97 2.63-11.2 3.36-2.23.73-3.56-.79-3.88-.13-.31.65 1.45 2.09 4.62 1.62 3.17-.47 4.1-2.87 11.1-2.3 7 .56 8.64-2.87 15.02-2.04"/>
    <path fill="#843511" d="M31.38 50.93c-6.16.31-8.9 3.8-14.5 3.12 4.44 1.5 7.88-2.13 14.44-1.92"/>
    <path fill="#FCBF49" d="m48.9 50.15 42.2-19.37s.8-.33.57-.87c-.22-.54-1.02-.2-1.02-.2L47.1 45.85"/>
    <path stroke="#843511" d="m48.9 50.15 42.2-19.37s.8-.33.57-.87c-.22-.54-1.02-.2-1.02-.2L47.1 45.85"/>
    <path fill="#843511" d="M48.45 49.08 77.43 35.8 47.55 46.92"/>
    <path fill="#FCBF49" d="M63.53 46.32c6.41.23 9.94-3.72 15.68-3.2 5.73.52 8.97-2.63 11.2-3.36 2.23-.73 3.56.79 3.88.13.31-.65-1.45-2.09-4.62-1.62-3.17.47-4.1 2.87-11.1 2.3-7-.56-8.64 2.87-15.02 2.04"/>
    <path stroke="#843511" d="M63.53 46.32c6.41.23 9.94-3.72 15.68-3.2 5.73.52 8.97-2.63 11.2-3.36 2.23-.73 3.56.79 3.88.13.31-.65-1.45-2.09-4.62-1.62-3.17.47-4.1 2.87-11.1 2.3-7-.56-8.64 2.87-15.02 2.04"/>
    <path fill="#843511" d="M64.62 45.07c6.16-.31 8.89-3.8 14.5-3.12-4.44-1.5-7.88 2.13-14.44 1.92"/>
    <path fill="#FCBF49" d="M50.15 47.1 30.78 4.9s-.33-.8-.87-.57c-.54.22-.2 1.02-.2 1.02L45.85 48.9"/>
    <path stroke="#843511" d="M50.15 47.1 30.78 4.9s-.33-.8-.87-.57c-.54.22-.2 1.02-.2 1.02L45.85 48.9"/>
    <path fill="#843511" d="M49.08 47.55 35.8 18.57l11.11 29.88"/>
    <path fill="#FCBF49" d="M46.32 32.47c.23-6.41-3.72-9.94-3.2-15.68.52-5.73-2.63-8.97-3.36-11.2-.73-2.23.79-3.56.13-3.88-.65-.31-2.09 1.45-1.62 4.62.47 3.17 2.87 4.1 2.3 11.1-.56 7 2.87 8.64 2.04 15.02"/>
    <path stroke="#843511" d="M46.32 32.47c.23-6.41-3.72-9.94-3.2-15.68.52-5.73-2.63-8.97-3.36-11.2-.73-2.23.79-3.56.13-3.88-.65-.31-2.09 1.45-1.62 4.62.47 3.17 2.87 4.1 2.3 11.1-.56 7 2.87 8.64 2.04 15.02"/>
    <path fill="#843511" d="M45.07 31.38c-.31-6.16-3.8-8.89-3.12-14.5-1.5 4.44 2.12 7.88 1.92 14.44"/>
    <path fill="#FCBF49" d="m45.85 48.9 19.37 42.2s.33.8.87.57c.54-.22.2-1.02.2-1.02L50.15 47.1"/>
    <path stroke="#843511" d="m45.85 48.9 19.37 42.2s.33.8.87.57c.54-.22.2-1.02.2-1.02L50.15 47.1"/>
    <path fill="#843511" d="M46.92 48.45 60.2 77.43 49.07 47.55"/>
    <path fill="#FCBF49" d="M49.68 63.53c-.23 6.41 3.72 9.94 3.2 15.68-.52 5.73 2.63 8.97 3.36 11.2.73 2.23-.79 3.56-.13 3.88.65.31 2.09-1.45 1.62-4.62-.47-3.17-2.87-4.1-2.3-11.1.56-7-2.87-8.64-2.04-15.02"/>
    <path stroke="#843511" d="M49.68 63.53c-.23 6.41 3.72 9.94 3.2 15.68-.52 5.73 2.63 8.97 3.36 11.2.73 2.23-.79 3.56-.13 3.88.65.31 2.09-1.45 1.62-4.62-.47-3.17-2.87-4.1-2.3-11.1.56-7-2.87-8.64-2.04-15.02"/>
    <path fill="#843511" d="M50.93 64.62c.31 6.16 3.8 8.89 3.12 14.5 1.5-4.44-2.13-7.88-1.92-14.44"/>
    <path fill="#FCBF49" stroke="#843511" d="M48 66.9a18.9 18.9 0 1 0 0-37.8 18.9 18.9 0 0 0 0 37.8Z"/>
    <path fill="#843511" d="M59.93 43.93c-3.35-2.91-7.57-3.35-9.9-1.17-1.68 2.26-1.53 4.92.44 7.71-.14 0-.43.15-.58.3-1.47-2.8-1.72-5.68-.73-8.3 3.2-2.62 7.57-2.9 10.77 1.46Z"/>
    <path fill="#843511" d="M54.7 43.05c-1.9 0-2.34.44-3.2 1.17-.88.73-1.32.58-1.46.73-.15.14 0 .58.29.43.29-.14.87-.43 1.74-1.16.88-.73 1.75-.73 2.62-.73 2.62 0 4.07 2.18 4.36 2.04.3-.15-1.45-2.48-4.36-2.48Z"/>
    <path fill="#843511" d="M58.04 45.53c-1.9-2.04-5.39-2.18-6.84.14h.58c1.46-2.32 4.95-1.3 5.24-.29v.3"/>
    <path fill="#843511" d="M54.4 46.7a1.3 1.3 0 1 0 0-2.63 1.3 1.3 0 0 0 0 2.62Z"/>
    <path fill="#843511" d="M51.2 45.67c1.45 1.31 4.65 1.46 6.84-.14l-1.02-.15c-1.46 1.6-3.78 1.46-5.24.3v-.3"/>
    <path fill="#843511" d="M58.18 46.25c-2.47 1.9-4.94 1.75-6.4.88-1.45-.88-1.45-1.17-1.16-1.17.29 0 .58.3 1.74.88 1.17.58 2.91.58 5.82-.59Zm-7.13 4.37a.87.87 0 1 1-1.16.87c-.14.3-.73 1.16-1.89 1.16h-.3l.3.44c.3 0 1.16 0 1.75-.44a1.3 1.3 0 1 0 1.3-2.03Zm1.75 6.11c-1.3-.88-1.9-2.18-3.35-2.18-.29 0-.87.14-1.45.43h-.3l.3.44c.58 0 1.45-.73 2.47-.15 1.02.58 1.6 1.17 2.33 1.46Zm-.44 0c-2.9-.88-3.49-.3-4.36-.3h-.3l.3.59c1.16 0 1.75-.87 4.36-.3Z"/>
    <path fill="#843511" d="M52.8 56.73c-3.2-.3-2.18 1.6-4.8 1.6h-.3l.3.43c3.2 0 1.75-1.74 4.8-2.03Z"/>
    <path fill="#843511" d="M50.62 61.38a2.62 2.62 0 1 0-5.24 0 2.7 2.7 0 0 1 5.24 0ZM36.07 43.93c3.35-2.91 7.57-3.35 9.9-1.17 1.68 2.26 1.53 4.92-.44 7.71.14 0 .43.15.58.3 1.47-2.8 1.72-5.68.73-8.3-3.2-2.62-7.57-2.9-10.77 1.46Z"/>
    <path fill="#843511" d="M41.3 43.05c1.9 0 2.34.44 3.2 1.17.88.73 1.32.58 1.46.73.15.14 0 .58-.29.43a7.93 7.93 0 0 1-1.74-1.16c-.88-.73-1.75-.73-2.62-.73-2.62 0-4.07 2.18-4.36 2.04-.3-.15 1.45-2.48 4.36-2.48Z"/>
    <path fill="#843511" d="M37.96 45.53c1.9-2.04 5.39-2.18 6.84.14h-.58c-1.46-2.32-4.95-1.3-5.24-.29v.3"/>
    <path fill="#843511" d="M41.6 46.7a1.3 1.3 0 1 1 0-2.63 1.3 1.3 0 0 1 0 2.62Z"/>
    <path fill="#843511" d="M44.8 45.67c-1.45 1.31-4.65 1.46-6.84-.14l1.02-.15c1.46 1.6 3.78 1.46 5.24.3v-.3"/>
    <path fill="#843511" d="M37.82 46.25c2.47 1.9 4.94 1.75 6.4.88 1.45-.88 1.45-1.17 1.16-1.17-.29 0-.58.3-1.74.88-1.17.58-2.91.58-5.82-.59Zm7.13 4.37a.87.87 0 1 0 1.16.87c.14.3.73 1.16 1.89 1.16h.3l-.3.44c-.3 0-1.16 0-1.75-.44a1.3 1.3 0 1 1-1.3-2.03Zm-1.75 6.11c1.3-.88 1.9-2.18 3.35-2.18.29 0 .87.14 1.45.43h.3l-.3.44c-.58 0-1.45-.73-2.47-.15-1.02.58-1.6 1.17-2.33 1.46Zm.44 0c2.9-.88 3.49-.3 4.36-.3h.3l-.3.59c-1.16 0-1.75-.87-4.36-.3Z"/>
    <path fill="#843511" d="M43.2 56.73c3.2-.3 2.18 1.6 4.8 1.6h.3l-.3.43c-3.2 0-1.75-1.74-4.8-2.03Z"/>
    <path fill="#843511" d="M45.38 61.38a2.62 2.62 0 1 1 5.24 0 2.7 2.7 0 0 0-5.24 0Z"/>
  </g>
  <defs>
    <clipPath id="a">
      <path fill="#fff" d="M0 0h96v96H0z"/>
    </clipPath>
  </defs>
</svg>